<mxfile host="app.diagrams.net" agent="Mozilla/5.0 (X11; Ubuntu; Linux x86_64; rv:131.0) Gecko/20100101 Firefox/131.0" version="24.7.17">
  <diagram name="Page-1" id="ktF5TGMckmJRGJdR5RHU">
    <mxGraphModel dx="797" dy="457" grid="1" gridSize="10" guides="1" tooltips="1" connect="1" arrows="1" fold="1" page="1" pageScale="1" pageWidth="850" pageHeight="1100" math="0" shadow="0">
      <root>
        <mxCell id="0" />
        <mxCell id="1" parent="0" />
        <mxCell id="r_c0FHn-OcgTRAtTLJpJ-2" value="Oracle" style="rounded=0;whiteSpace=wrap;html=1;" vertex="1" parent="1">
          <mxGeometry x="180" y="520" width="80" height="60" as="geometry" />
        </mxCell>
        <mxCell id="r_c0FHn-OcgTRAtTLJpJ-3" value="|0⟩" style="ellipse;whiteSpace=wrap;html=1;" vertex="1" parent="1">
          <mxGeometry x="20" y="520" width="30" height="30" as="geometry" />
        </mxCell>
        <mxCell id="r_c0FHn-OcgTRAtTLJpJ-5" value="|0⟩" style="ellipse;whiteSpace=wrap;html=1;" vertex="1" parent="1">
          <mxGeometry x="20" y="550" width="30" height="30" as="geometry" />
        </mxCell>
        <mxCell id="r_c0FHn-OcgTRAtTLJpJ-7" value="" style="endArrow=none;html=1;rounded=0;exitX=1;exitY=0.5;exitDx=0;exitDy=0;entryX=0;entryY=0.75;entryDx=0;entryDy=0;" edge="1" parent="1" source="r_c0FHn-OcgTRAtTLJpJ-5" target="r_c0FHn-OcgTRAtTLJpJ-2">
          <mxGeometry width="50" height="50" relative="1" as="geometry">
            <mxPoint x="520" y="620" as="sourcePoint" />
            <mxPoint x="570" y="570" as="targetPoint" />
          </mxGeometry>
        </mxCell>
        <mxCell id="r_c0FHn-OcgTRAtTLJpJ-9" value="H" style="rounded=0;whiteSpace=wrap;html=1;" vertex="1" parent="1">
          <mxGeometry x="140" y="523.75" width="20" height="22.5" as="geometry" />
        </mxCell>
        <mxCell id="r_c0FHn-OcgTRAtTLJpJ-66" value="" style="endArrow=none;html=1;rounded=0;exitX=1;exitY=0.5;exitDx=0;exitDy=0;entryX=0;entryY=0.5;entryDx=0;entryDy=0;" edge="1" parent="1" source="r_c0FHn-OcgTRAtTLJpJ-3" target="r_c0FHn-OcgTRAtTLJpJ-9">
          <mxGeometry width="50" height="50" relative="1" as="geometry">
            <mxPoint x="70" y="530" as="sourcePoint" />
            <mxPoint x="90" y="540" as="targetPoint" />
          </mxGeometry>
        </mxCell>
        <mxCell id="r_c0FHn-OcgTRAtTLJpJ-67" value="" style="endArrow=none;html=1;rounded=0;exitX=1;exitY=0.5;exitDx=0;exitDy=0;entryX=0;entryY=0.25;entryDx=0;entryDy=0;" edge="1" parent="1" source="r_c0FHn-OcgTRAtTLJpJ-9" target="r_c0FHn-OcgTRAtTLJpJ-2">
          <mxGeometry width="50" height="50" relative="1" as="geometry">
            <mxPoint x="180" y="500" as="sourcePoint" />
            <mxPoint x="230" y="450" as="targetPoint" />
          </mxGeometry>
        </mxCell>
        <mxCell id="r_c0FHn-OcgTRAtTLJpJ-68" value="H" style="rounded=0;whiteSpace=wrap;html=1;" vertex="1" parent="1">
          <mxGeometry x="140" y="557.5" width="20" height="22.5" as="geometry" />
        </mxCell>
        <mxCell id="r_c0FHn-OcgTRAtTLJpJ-69" value="X" style="rounded=0;whiteSpace=wrap;html=1;" vertex="1" parent="1">
          <mxGeometry x="70" y="557.5" width="20" height="22.5" as="geometry" />
        </mxCell>
        <mxCell id="r_c0FHn-OcgTRAtTLJpJ-72" value="" style="endArrow=none;html=1;rounded=0;exitX=1;exitY=0.5;exitDx=0;exitDy=0;entryX=0;entryY=0.5;entryDx=0;entryDy=0;" edge="1" parent="1" source="r_c0FHn-OcgTRAtTLJpJ-73">
          <mxGeometry width="50" height="50" relative="1" as="geometry">
            <mxPoint x="260" y="534.72" as="sourcePoint" />
            <mxPoint x="350" y="534.72" as="targetPoint" />
          </mxGeometry>
        </mxCell>
        <mxCell id="r_c0FHn-OcgTRAtTLJpJ-74" value="" style="endArrow=none;html=1;rounded=0;exitX=1;exitY=0.5;exitDx=0;exitDy=0;entryX=0;entryY=0.5;entryDx=0;entryDy=0;" edge="1" parent="1" target="r_c0FHn-OcgTRAtTLJpJ-73">
          <mxGeometry width="50" height="50" relative="1" as="geometry">
            <mxPoint x="260" y="534.72" as="sourcePoint" />
            <mxPoint x="350" y="534.72" as="targetPoint" />
          </mxGeometry>
        </mxCell>
        <mxCell id="r_c0FHn-OcgTRAtTLJpJ-73" value="H" style="rounded=0;whiteSpace=wrap;html=1;" vertex="1" parent="1">
          <mxGeometry x="290" y="523.75" width="20" height="22.5" as="geometry" />
        </mxCell>
        <mxCell id="r_c0FHn-OcgTRAtTLJpJ-75" value="" style="endArrow=none;html=1;rounded=0;exitX=1;exitY=0.75;exitDx=0;exitDy=0;" edge="1" parent="1" source="r_c0FHn-OcgTRAtTLJpJ-2">
          <mxGeometry width="50" height="50" relative="1" as="geometry">
            <mxPoint x="260" y="564.24" as="sourcePoint" />
            <mxPoint x="350" y="565.77" as="targetPoint" />
          </mxGeometry>
        </mxCell>
      </root>
    </mxGraphModel>
  </diagram>
</mxfile>
